General
Unique ID                                : 62771011776930456412065337316766264265 (0x2F3941D2C076A62BFCC0CF78585E2BC9)
Complete name                            : Ado - Chocolat Cadabra [WEB-DL 1080p AAC 2.0 x264-SEKAI].mkv
Format                                   : Matroska
Format version                           : Version 4
File size                                : 153 MiB
Duration                                 : 3 min 18 s
Overall bit rate                         : 6 482 kb/s
Frame rate                               : 23.976 FPS
Title                                    : Ado - Chocolat Cadabra [WEB-DL 1080p AAC 2.0 x264-SEKAI]
Encoded date                             : 2026-05-01 17:57:23 UTC
Writing application                      : mkvmerge 98.0 ('Chonks') 64-bit
Writing library                          : libebml v1.4.5 + libmatroska v1.7.1
Website                                  : https://sekai-archivist.blogspot.com/

Video
ID                                       : 1
Format                                   : AVC
Format/Info                              : Advanced Video Codec
Format profile                           : High@L4
Format settings                          : CABAC / 4 Ref Frames
Format settings, CABAC                   : Yes
Format settings, Reference frames        : 4 frames
Format settings, Slice count             : 8 slices per frame
Codec ID                                 : V_MPEG4/ISO/AVC
Duration                                 : 3 min 18 s
Bit rate                                 : 6 227 kb/s
Width                                    : 1 920 pixels
Height                                   : 1 080 pixels
Display aspect ratio                     : 16:9
Frame rate mode                          : Constant
Frame rate                               : 23.976 (24000/1001) FPS
Color space                              : YUV
Chroma subsampling                       : 4:2:0 (Type 2)
Bit depth                                : 8 bits
Scan type                                : Progressive
Bits/(Pixel*Frame)                       : 0.125
Stream size                              : 147 MiB (96%)
Language                                 : Japanese
Default                                  : Yes
Forced                                   : No
Color range                              : Limited
Color primaries                          : BT.709
Transfer characteristics                 : BT.709
Matrix coefficients                      : BT.709

Audio
ID                                       : 2
Format                                   : AAC LC
Format/Info                              : Advanced Audio Codec Low Complexity
Codec ID                                 : A_AAC-2
Duration                                 : 3 min 18 s
Bit rate                                 : 254 kb/s
Channel(s)                               : 2 channels
Channel layout                           : L R
Sampling rate                            : 48.0 kHz
Frame rate                               : 46.875 FPS (1024 SPF)
Compression mode                         : Lossy
Stream size                              : 6.02 MiB (4%)
Language                                 : Japanese
Default                                  : Yes
Forced                                   : No


